<svg xmlns:xlink="http://www.w3.org/1999/xlink" xmlns="http://www.w3.org/2000/svg" width="197" height="60" viewBox="0 0 197 60" fill="none">
<path d="M0.851624 23.7041L42.7876 12.435V0.498535L0.851624 11.759V23.7041Z" fill="#8DC63F"/>
<path d="M37.1573 19.3574L0.851562 29.7109V41.656L37.1573 31.2939V19.3574Z" fill="#5C8CC9"/>
<path d="M0.851562 59.4536L42.7876 47.8252V35.8801L0.851562 47.5086V59.4536Z" fill="#8DC63F"/>
<path d="M50.4715 19.9392H58.6174L64.9065 35.8545L70.5368 19.9392H78.9051L84.5953 35.8545L90.8331 19.9392H98.979L87.3848 47.6712H81.4807L74.6953 29.0178L67.9698 47.6712H62.0058L50.4715 19.9392Z" fill="#5C8CC9"/>
<path d="M98.765 33.8266C98.765 25.0219 105.003 19.3831 113.311 19.3831C121.568 19.3831 127.858 25.0133 127.858 33.8266C127.858 42.4175 121.782 48.2103 113.311 48.2103C104.84 48.2103 98.765 42.4175 98.765 33.8266ZM113.311 42.195C118.069 42.195 120.259 38.1991 120.259 33.8266C120.259 29.2317 117.795 25.4069 113.311 25.4069C108.768 25.4069 106.363 29.0691 106.363 33.8266C106.372 38.2076 108.554 42.195 113.311 42.195Z" fill="#5C8CC9"/>
<path d="M144.38 19.9391V25.9544C141.043 26.0656 139.623 27.101 139.623 29.7792V47.6625H132.025V28.3588C132.016 21.522 138.365 19.8792 144.38 19.9391Z" fill="#5C8CC9"/>
<path d="M148.53 47.6627V11.511H156.129V28.2991L163.513 19.9307H172.917L162.52 32.7827L174.003 47.6627H164.488L156.12 37.0525V47.6627H148.53Z" fill="#5C8CC9"/>
<path d="M174.508 37.9339H182.055C182.055 40.4495 183.202 41.9298 185.444 42.0924C187.685 42.2549 188.943 41.3223 188.943 39.7393C188.943 38.0964 188.07 37.1124 184.4 36.6247C178.273 35.8033 174.337 33.5614 174.337 27.6574C174.337 22.0271 179.317 19.3403 184.733 19.4516C191.408 19.5628 195.943 23.1138 195.729 29.9505L188.456 29.8992C188.507 26.5621 187.086 25.4669 184.733 25.4669C182.979 25.4669 181.893 26.3396 181.893 27.7087C181.893 28.9665 182.492 30.3356 185.615 30.772C192.888 31.8073 196.55 33.7839 196.55 39.3628C196.55 44.9931 192.451 48.2189 185.503 48.1162C179.702 47.9964 174.346 45.0957 174.508 37.9339Z" fill="#5C8CC9"/>
</svg>